<svg id="Layer_1" data-name="Layer 1" xmlns="http://www.w3.org/2000/svg" viewBox="0 0 790 600"><defs><style>.cls-1{fill:#f2f2f2;}.cls-2{fill:#999;}</style></defs><rect class="cls-1" width="790" height="600"/><rect class="cls-2" x="434" y="261.06" width="15.4"/><rect class="cls-2" x="340.62" y="245.66" height="15.4"/><rect class="cls-2" x="340.62" y="261.06" height="15.72"/><rect class="cls-2" x="402.42" y="339.43" width="15.81"/><rect class="cls-2" x="387.11" y="339.43" width="15.31"/><rect class="cls-2" x="371.76" y="339.43" width="15.35"/><rect class="cls-2" x="340.62" y="339.43" width="15.4"/><rect class="cls-2" x="356.03" y="339.43" width="15.73"/><rect class="cls-2" x="340.62" y="307.79" height="15.91"/><polygon class="cls-2" points="340.62 292.1 340.62 292.1 340.62 299.94 340.62 307.79 340.62 307.79 340.62 292.1"/><rect class="cls-2" x="418.23" y="339.43" width="15.77"/><rect class="cls-2" x="371.76" y="261.06" width="15.35"/><rect class="cls-2" x="356.03" y="261.06" width="15.73"/><rect class="cls-2" x="387.11" y="261.06" width="15.31"/><rect class="cls-2" x="340.62" y="276.79" height="15.31"/><rect class="cls-2" x="418.23" y="261.06" width="15.77"/><rect class="cls-2" x="324.88" y="261.06" width="0.02" height="15.72"/><rect class="cls-2" x="324.88" y="276.79" width="0.02" height="15.31"/><rect class="cls-2" x="324.87" y="323.74" width="0.02" height="15.69"/><rect class="cls-2" x="324.88" y="307.79" width="0.02" height="15.95"/><rect class="cls-2" x="324.88" y="245.66" width="0.02" height="15.4"/><rect class="cls-2" x="371.74" y="276.78" width="0.01" height="15.3"/><rect class="cls-2" x="402.42" y="261.06" width="15.81"/><polygon class="cls-2" points="449.4 354.32 449.4 354.33 443.4 354.32 449.4 354.32"/><rect class="cls-2" x="418.22" y="307.8" width="0.05" height="15.9"/><polygon class="cls-2" points="324.88 354.32 324.87 370 324.87 354.32 324.88 354.32"/><polygon class="cls-2" points="324.9 299.94 324.9 292.1 324.88 292.1 324.88 307.79 324.9 307.79 324.9 299.94"/><rect class="cls-2" x="402.42" y="323.74" width="15.8" height="15.69"/><rect class="cls-2" x="387.11" y="323.71" width="15.31" height="0.04"/><rect class="cls-2" x="356.02" y="292.1" height="15.7"/><rect class="cls-2" x="402.42" y="323.71" width="15.8" height="0.04"/><rect class="cls-2" x="371.76" y="276.79" width="15.35"/><rect class="cls-2" x="356.02" y="307.79" height="0.01"/><rect class="cls-2" x="324.88" y="354.28" width="15.74" height="0.04"/><rect class="cls-2" x="356.02" y="276.79" height="15.31"/><rect class="cls-2" x="371.75" y="323.71" width="15.36" height="0.04"/><rect class="cls-2" x="356.02" y="307.79" width="15.73" height="0.01"/><rect class="cls-2" x="371.75" y="261.07" width="15.36" height="15.72"/><rect class="cls-2" x="433.99" y="323.74" width="0.01" height="15.69"/><rect class="cls-2" x="371.75" y="292.09" width="15.36" height="0.01"/><rect class="cls-2" x="371.75" y="323.74" width="15.36" height="15.69"/><rect class="cls-2" x="387.11" y="292.09" width="15.31" height="0.01"/><rect class="cls-2" x="371.75" y="307.79" width="15.36" height="0.01"/><polygon class="cls-2" points="371.75 292.08 371.75 292.1 356.02 292.1 356.02 276.79 371.74 276.79 371.74 292.08 371.75 292.08"/><rect class="cls-2" x="356.02" y="261.07" width="15.73" height="15.72"/><rect class="cls-2" x="356.02" y="292.09" width="15.73" height="15.7"/><rect class="cls-2" x="371.76" y="292.1" width="15.35" height="15.7"/><rect class="cls-2" x="387.11" y="276.79" width="15.31"/><rect class="cls-2" x="387.11" y="307.79" width="15.31" height="0.01"/><rect class="cls-2" x="387.11" y="292.1" width="15.31" height="15.7"/><rect class="cls-2" x="402.42" y="307.79" width="15.8" height="0.01"/><rect class="cls-2" x="356.02" y="261.06" height="15.72"/><rect class="cls-2" x="387.11" y="261.07" width="15.31" height="15.72"/><rect class="cls-2" x="387.11" y="323.74" width="15.31" height="15.69"/><rect class="cls-2" x="449.4" y="245.66" width="15.72" height="15.4"/><rect class="cls-2" x="356.02" y="229.93" width="15.73" height="15.73"/><rect class="cls-2" x="402.42" y="229.93" width="15.8" height="15.73"/><rect class="cls-2" x="418.22" y="229.93" width="15.77" height="15.73"/><rect class="cls-2" x="371.75" y="229.93" width="15.36" height="15.73"/><rect class="cls-2" x="387.11" y="229.93" width="15.31" height="15.73"/><rect class="cls-2" x="433.99" y="229.93" width="31.13" height="15.73"/><rect class="cls-2" x="418.22" y="292.09" width="15.77" height="0.01"/><rect class="cls-2" x="433.99" y="261.07" width="31.13" height="15.72"/><rect class="cls-2" x="434" y="292.08" width="31.13" height="0.02"/><rect class="cls-2" x="418.23" y="276.79" width="15.77"/><rect class="cls-2" x="434" y="276.79" width="31.13"/><rect class="cls-2" x="324.89" y="245.66" width="15.73" height="15.4"/><rect class="cls-2" x="402.42" y="354.33" width="15.81" height="15.71"/><rect class="cls-2" x="418.23" y="354.33" width="15.77" height="15.72"/><rect class="cls-2" x="387.11" y="354.33" width="15.31" height="15.71"/><rect class="cls-2" x="340.62" y="229.93" width="15.4" height="15.73"/><rect class="cls-2" x="371.76" y="354.33" width="15.35" height="15.7"/><rect class="cls-2" x="449.4" y="339.43" width="15.72" height="14.89"/><polygon class="cls-2" points="465.12 354.32 465.12 370.06 433.99 370.06 433.99 354.32 443.4 354.32 449.4 354.33 449.4 354.32 465.12 354.32"/><polygon class="cls-2" points="434 307.79 465.13 307.79 465.13 300.44 465.13 292.1 434 292.1 434 307.79"/><polygon class="cls-2" points="340.62 245.66 340.62 229.94 324.9 229.94 324.9 245.66 340.62 245.66 340.62 245.66"/><rect class="cls-2" x="356.03" y="354.33" width="15.73" height="15.7"/><rect class="cls-2" x="324.88" y="354.33" width="15.74" height="15.68"/><rect class="cls-2" x="340.62" y="354.33" width="15.4" height="15.69"/><rect class="cls-2" x="418.22" y="261.07" width="15.77" height="15.72"/><rect class="cls-2" x="402.42" y="276.79" width="15.81"/><rect class="cls-2" x="402.42" y="292.1" width="15.81" height="15.7"/><rect class="cls-2" x="402.42" y="292.09" width="15.8" height="0.01"/><rect class="cls-2" x="402.42" y="261.07" width="15.8" height="15.72"/><rect class="cls-2" x="324.89" y="276.78" width="15.73" height="15.31"/><rect class="cls-2" x="324.89" y="261.07" width="15.73" height="15.72"/><rect class="cls-2" x="340.62" y="323.71" width="15.4" height="0.04"/><rect class="cls-2" x="418.23" y="292.1" width="15.77" height="15.7"/><rect class="cls-2" x="356.02" y="323.74" width="15.73" height="15.69"/><rect class="cls-2" x="356.02" y="323.71" width="15.73" height="0.04"/><polygon class="cls-2" points="418.23 307.81 418.27 307.81 418.27 323.71 418.23 323.71 418.23 323.74 434 323.74 434 307.79 418.23 307.79 418.23 307.81"/><rect class="cls-2" x="418.22" y="323.74" width="15.77" height="15.69"/><polygon class="cls-2" points="433.99 354.32 418.22 354.32 418.22 354.31 433.99 354.32"/><polygon class="cls-2" points="465.12 307.8 465.12 323.75 449.4 323.75 449.4 307.81 434 307.81 434 323.75 433.99 323.75 433.99 307.8 465.12 307.8"/><rect class="cls-2" x="402.42" y="354.32" width="15.8" height="0.01"/><polygon class="cls-2" points="402.42 354.31 402.42 354.32 387.11 354.32 387.11 354.31 402.42 354.31"/><rect class="cls-2" x="449.4" y="323.74" width="15.72" height="15.69"/><rect class="cls-2" x="371.75" y="354.3" width="15.36" height="0.02"/><polygon class="cls-2" points="434 354.33 443.4 354.33 434 354.32 434 354.33"/><rect class="cls-2" x="324.89" y="307.79" width="15.73" height="15.95"/><rect class="cls-2" x="324.89" y="292.09" width="15.73" height="15.7"/><polygon class="cls-2" points="371.75 354.31 371.75 354.32 356.02 354.32 356.02 354.3 371.75 354.31"/><rect class="cls-2" x="324.89" y="323.74" width="15.73" height="15.69"/><polygon class="cls-2" points="356.02 354.3 356.02 354.32 340.62 354.32 340.62 354.29 356.02 354.3"/><rect class="cls-2" x="340.62" y="323.74" width="15.4" height="15.69"/></svg>